# xmcd
#
# Track frame offsets:
# 150
# 14688
# 29804
# 48021
# 67217
# 87211
# 107763
# 124549
# 143501
# 164615
#
# Disc length: 2539 seconds
#
#
# Revision: 0
# Processed by: cddbd v1.5.1PL2 Copyright (c) Steve Scherf et al.
# Submitted via: FreeRIP 2.944 
#
DISCID=8809e90a
DTITLE=Amy Grant - Unguarded
DYEAR=1985
DGENRE=Contemporary Christian
TTITLE0=Love Of Another Kind
TTITLE1=Find A Way
TTITLE2=Everywhere I Go
TTITLE3=I Love You
TTITLE4=Stepping In Your Shoes
TTITLE5=Fight
TTITLE6=Wise Up
TTITLE7=Who To Listen To
TTITLE8=Sharayah
TTITLE9=The Prodigal
EXTD=
EXTT0=
EXTT1=
EXTT2=
EXTT3=
EXTT4=
EXTT5=
EXTT6=
EXTT7=
EXTT8=
EXTT9=
PLAYORDER=
